<mxfile host="app.diagrams.net" agent="Mozilla/5.0 (Windows NT 10.0; Win64; x64) AppleWebKit/537.36 (KHTML, like Gecko) Chrome/131.0.0.0 Safari/537.36 Edg/131.0.0.0" version="25.0.0">
  <diagram name="Page-1" id="D5UARvYzac3lgn8T1-qm">
    <mxGraphModel dx="1346" dy="1369" grid="1" gridSize="10" guides="1" tooltips="1" connect="1" arrows="1" fold="1" page="1" pageScale="1" pageWidth="850" pageHeight="1100" math="0" shadow="0">
      <root>
        <mxCell id="0" />
        <mxCell id="1" parent="0" />
        <mxCell id="qfO8DHRSh2s665iV21xJ-3" value="" style="edgeStyle=orthogonalEdgeStyle;rounded=0;orthogonalLoop=1;jettySize=auto;html=1;" edge="1" parent="1" source="qfO8DHRSh2s665iV21xJ-1" target="qfO8DHRSh2s665iV21xJ-2">
          <mxGeometry relative="1" as="geometry" />
        </mxCell>
        <mxCell id="qfO8DHRSh2s665iV21xJ-1" value="&lt;font data-font-src=&quot;https://fonts.googleapis.com/css?family=Sarabun&quot; face=&quot;Sarabun&quot;&gt;Start&lt;/font&gt;" style="ellipse;whiteSpace=wrap;html=1;" vertex="1" parent="1">
          <mxGeometry x="-539.0000000000001" y="-940" width="130" height="30" as="geometry" />
        </mxCell>
        <mxCell id="qfO8DHRSh2s665iV21xJ-5" value="" style="edgeStyle=orthogonalEdgeStyle;rounded=0;orthogonalLoop=1;jettySize=auto;html=1;" edge="1" parent="1" source="qfO8DHRSh2s665iV21xJ-2" target="qfO8DHRSh2s665iV21xJ-4">
          <mxGeometry relative="1" as="geometry" />
        </mxCell>
        <mxCell id="qfO8DHRSh2s665iV21xJ-2" value="กำหนดตัวแปร input" style="rounded=0;whiteSpace=wrap;html=1;" vertex="1" parent="1">
          <mxGeometry x="-539.0000000000001" y="-880" width="130" height="40" as="geometry" />
        </mxCell>
        <mxCell id="qfO8DHRSh2s665iV21xJ-7" value="" style="edgeStyle=orthogonalEdgeStyle;rounded=0;orthogonalLoop=1;jettySize=auto;html=1;" edge="1" parent="1" source="qfO8DHRSh2s665iV21xJ-4">
          <mxGeometry relative="1" as="geometry">
            <mxPoint x="-474" y="-730" as="targetPoint" />
          </mxGeometry>
        </mxCell>
        <mxCell id="qfO8DHRSh2s665iV21xJ-4" value="กำหนดตัวแปร n" style="rounded=0;whiteSpace=wrap;html=1;" vertex="1" parent="1">
          <mxGeometry x="-539.0000000000001" y="-810" width="130" height="40" as="geometry" />
        </mxCell>
        <mxCell id="qfO8DHRSh2s665iV21xJ-18" value="" style="edgeStyle=orthogonalEdgeStyle;rounded=0;orthogonalLoop=1;jettySize=auto;html=1;" edge="1" parent="1" source="qfO8DHRSh2s665iV21xJ-9" target="qfO8DHRSh2s665iV21xJ-16">
          <mxGeometry relative="1" as="geometry" />
        </mxCell>
        <mxCell id="qfO8DHRSh2s665iV21xJ-9" value="กรอกตัวแปร input" style="rounded=0;whiteSpace=wrap;html=1;shape=parallelogram;perimeter=parallelogramPerimeter;fixedSize=1;" vertex="1" parent="1">
          <mxGeometry x="-540.0000000000001" y="-670" width="130" height="40" as="geometry" />
        </mxCell>
        <mxCell id="qfO8DHRSh2s665iV21xJ-14" value="" style="edgeStyle=orthogonalEdgeStyle;rounded=0;orthogonalLoop=1;jettySize=auto;html=1;" edge="1" parent="1" source="qfO8DHRSh2s665iV21xJ-12" target="qfO8DHRSh2s665iV21xJ-9">
          <mxGeometry relative="1" as="geometry" />
        </mxCell>
        <mxCell id="qfO8DHRSh2s665iV21xJ-12" value="" style="ellipse;whiteSpace=wrap;html=1;aspect=fixed;" vertex="1" parent="1">
          <mxGeometry x="-485" y="-730" width="20" height="20" as="geometry" />
        </mxCell>
        <mxCell id="qfO8DHRSh2s665iV21xJ-17" style="edgeStyle=orthogonalEdgeStyle;rounded=0;orthogonalLoop=1;jettySize=auto;html=1;entryX=0;entryY=0.5;entryDx=0;entryDy=0;" edge="1" parent="1" source="qfO8DHRSh2s665iV21xJ-16" target="qfO8DHRSh2s665iV21xJ-12">
          <mxGeometry relative="1" as="geometry">
            <Array as="points">
              <mxPoint x="-600" y="-550" />
              <mxPoint x="-600" y="-720" />
            </Array>
          </mxGeometry>
        </mxCell>
        <mxCell id="qfO8DHRSh2s665iV21xJ-23" style="edgeStyle=orthogonalEdgeStyle;rounded=0;orthogonalLoop=1;jettySize=auto;html=1;entryX=0.5;entryY=0;entryDx=0;entryDy=0;" edge="1" parent="1" source="qfO8DHRSh2s665iV21xJ-16" target="qfO8DHRSh2s665iV21xJ-19">
          <mxGeometry relative="1" as="geometry" />
        </mxCell>
        <mxCell id="qfO8DHRSh2s665iV21xJ-16" value="กรอก -1 หรือไม่" style="rhombus;whiteSpace=wrap;html=1;" vertex="1" parent="1">
          <mxGeometry x="-539" y="-590" width="128" height="80" as="geometry" />
        </mxCell>
        <mxCell id="qfO8DHRSh2s665iV21xJ-21" value="" style="edgeStyle=orthogonalEdgeStyle;rounded=0;orthogonalLoop=1;jettySize=auto;html=1;" edge="1" parent="1" source="qfO8DHRSh2s665iV21xJ-19" target="qfO8DHRSh2s665iV21xJ-20">
          <mxGeometry relative="1" as="geometry" />
        </mxCell>
        <mxCell id="qfO8DHRSh2s665iV21xJ-19" value="ปริ้นค่า index ที่วน" style="rounded=0;whiteSpace=wrap;html=1;shape=parallelogram;perimeter=parallelogramPerimeter;fixedSize=1;" vertex="1" parent="1">
          <mxGeometry x="-540.0000000000001" y="-480" width="130" height="40" as="geometry" />
        </mxCell>
        <mxCell id="qfO8DHRSh2s665iV21xJ-25" value="" style="edgeStyle=orthogonalEdgeStyle;rounded=0;orthogonalLoop=1;jettySize=auto;html=1;" edge="1" parent="1" source="qfO8DHRSh2s665iV21xJ-20" target="qfO8DHRSh2s665iV21xJ-24">
          <mxGeometry relative="1" as="geometry" />
        </mxCell>
        <mxCell id="qfO8DHRSh2s665iV21xJ-20" value="ปริ้นค่า input" style="rounded=0;whiteSpace=wrap;html=1;shape=parallelogram;perimeter=parallelogramPerimeter;fixedSize=1;" vertex="1" parent="1">
          <mxGeometry x="-540.0000000000001" y="-400" width="130" height="40" as="geometry" />
        </mxCell>
        <mxCell id="qfO8DHRSh2s665iV21xJ-24" value="&lt;font face=&quot;Sarabun&quot;&gt;END&lt;/font&gt;" style="ellipse;whiteSpace=wrap;html=1;" vertex="1" parent="1">
          <mxGeometry x="-540.0000000000001" y="-310" width="130" height="30" as="geometry" />
        </mxCell>
      </root>
    </mxGraphModel>
  </diagram>
</mxfile>
